<svg width="25" height="23" viewBox="0 0 25 23" fill="none" xmlns="http://www.w3.org/2000/svg">
<path d="M24.7487 5.32194L21.78 2.98361C21.5783 2.85122 21.3589 2.74923 21.1287 2.68078C20.8995 2.60493 20.6609 2.56277 20.42 2.55556H11.875L12.8762 8.94444H20.42C20.625 8.94444 20.8813 8.89717 21.1275 8.81922C21.3738 8.74128 21.6113 8.63394 21.7788 8.51767L24.7475 6.17678C24.9163 6.0605 25 5.90589 25 5.75C25 5.59411 24.9162 5.4395 24.7487 5.32194ZM10.625 0H9.375C9.20924 0 9.05027 0.0673113 8.93306 0.187126C8.81585 0.306941 8.75 0.469445 8.75 0.638889V5.11111H4.58C4.3725 5.11111 4.1175 5.15839 3.87125 5.23761C3.62375 5.31428 3.3875 5.42033 3.22 5.53917L0.25125 7.8775C0.0825 7.99378 0 8.14967 0 8.30556C0 8.46017 0.0825 8.61478 0.25125 8.73361L3.22 11.0745C3.3875 11.1908 3.62375 11.2981 3.87125 11.3748C4.1175 11.4527 4.3725 11.5 4.58 11.5H8.75V22.3611C8.75 22.5306 8.81585 22.6931 8.93306 22.8129C9.05027 22.9327 9.20924 23 9.375 23H10.625C10.7908 23 10.9497 22.9327 11.0669 22.8129C11.1842 22.6931 11.25 22.5306 11.25 22.3611V0.638889C11.25 0.469445 11.1842 0.306941 11.0669 0.187126C10.9497 0.0673113 10.7908 0 10.625 0Z" fill="black"/>
</svg>
