<svg width="16" height="16" viewBox="0 0 16 16" fill="none" xmlns="http://www.w3.org/2000/svg">
<path d="M8.38566 14.5296C8.30262 14.6925 8.1832 14.8277 8.03939 14.9218C7.89559 15.0158 7.73246 15.0653 7.56641 15.0653C7.40035 15.0653 7.23723 15.0158 7.09342 14.9218C6.94961 14.8277 6.83019 14.6925 6.74716 14.5296L0.193149 1.67246C0.11012 1.50958 0.0664073 1.32482 0.0664063 1.13675C0.0664052 0.948673 0.110115 0.763913 0.193143 0.601036C0.27617 0.438158 0.39559 0.302903 0.539399 0.208863C0.683209 0.114823 0.84634 0.0653124 1.0124 0.0653076L14.1204 0.0653076C14.2865 0.0653124 14.4496 0.114823 14.5934 0.208863C14.7372 0.302903 14.8566 0.438158 14.9397 0.601036C15.0227 0.763913 15.0664 0.948673 15.0664 1.13675C15.0664 1.32482 15.0227 1.50958 14.9397 1.67246L8.38566 14.5296Z" fill="#D9D9D9"/>
</svg>
