<svg width="15" height="16" viewBox="0 0 15 16" fill="none" xmlns="http://www.w3.org/2000/svg">
<path d="M6.80751 0.59405C6.89196 0.431917 7.01256 0.297724 7.15719 0.204955C7.30181 0.112187 7.46537 0.0641122 7.63141 0.0655638C7.79746 0.0670154 7.96015 0.117942 8.10313 0.213225C8.24611 0.308507 8.36434 0.444788 8.44595 0.608373L14.8873 13.5224C14.9689 13.686 15.011 13.8711 15.0094 14.0592C15.0077 14.2472 14.9624 14.4316 14.878 14.5937C14.7935 14.7559 14.6729 14.8901 14.5283 14.9829C14.3837 15.0756 14.2201 15.1237 14.054 15.1223L0.94653 15.0077C0.780478 15.0062 0.617784 14.9553 0.474802 14.86C0.33182 14.7647 0.213589 14.6284 0.131988 14.4648C0.0503876 14.3012 0.00829416 14.1161 0.00993929 13.928C0.0115844 13.74 0.0569089 13.5556 0.141359 13.3935L6.80751 0.59405Z" fill="#D9D9D9"/>
</svg>
