<svg width="5" height="16" viewBox="0 0 5 16" fill="none" xmlns="http://www.w3.org/2000/svg">
<path d="M2.49131 15.175C1.85798 15.175 1.33298 14.9833 0.916309 14.6C0.516309 14.2 0.316309 13.7083 0.316309 13.125C0.316309 12.5417 0.516309 12.0583 0.916309 11.675C1.33298 11.275 1.85798 11.075 2.49131 11.075C3.10798 11.075 3.61631 11.275 4.01631 11.675C4.41631 12.0583 4.61631 12.5417 4.61631 13.125C4.61631 13.7083 4.41631 14.2 4.01631 14.6C3.61631 14.9833 3.10798 15.175 2.49131 15.175ZM2.49131 4.825C1.85798 4.825 1.33298 4.63333 0.916309 4.25C0.516309 3.85 0.316309 3.35833 0.316309 2.775C0.316309 2.19167 0.516309 1.70833 0.916309 1.325C1.33298 0.924999 1.85798 0.724999 2.49131 0.724999C3.10798 0.724999 3.61631 0.924999 4.01631 1.325C4.41631 1.70833 4.61631 2.19167 4.61631 2.775C4.61631 3.35833 4.41631 3.85 4.01631 4.25C3.61631 4.63333 3.10798 4.825 2.49131 4.825Z" fill="black"/>
</svg>
