<svg width="33" height="27" viewBox="0 0 33 27" fill="none" xmlns="http://www.w3.org/2000/svg">
<path d="M9.44665 0.629165C10.0638 0.21784 10.7748 0 11.5 0C12.2253 0 12.9362 0.21784 13.5534 0.629165L22.6721 6.70545C22.771 6.77129 22.8529 6.86302 22.9102 6.97215C22.9675 7.08127 22.9984 7.20426 22.9999 7.32969C23.0015 7.45513 22.9737 7.57897 22.9191 7.68971C22.8646 7.80046 22.785 7.89454 22.6878 7.96322L13.6399 14.3515C13.0037 14.8007 12.2601 15.04 11.5 15.04C10.7399 15.04 9.99632 14.8007 9.36017 14.3515L1.38034 8.71829V14.7916C1.38034 14.9892 1.30765 15.1787 1.17825 15.3185C1.04886 15.4582 0.873356 15.5367 0.690363 15.5367C0.507369 15.5367 0.331871 15.4582 0.202475 15.3185C0.0730785 15.1787 0.000384533 14.9892 0.000384533 14.7916V7.58768C0.000384533 7.54496 0.00406441 7.50323 0.00958423 7.46349C-0.0132205 7.31727 0.0048877 7.16704 0.0615921 7.032C0.118296 6.89696 0.211018 6.78326 0.327894 6.70545L9.44665 0.629165ZM4.14025 12.4459L8.60487 15.5983C9.46556 16.2061 10.4716 16.5299 11.5 16.5299C12.5284 16.5299 13.5345 16.2061 14.3952 15.5983L18.8598 12.4469V17.2744C18.8598 17.5714 18.7108 17.7502 18.535 17.936C18.4476 18.0274 18.3225 18.1546 18.1588 18.3056C17.7158 18.7137 17.2419 19.0809 16.742 19.4034C15.5166 20.1982 13.7273 21 11.5 21C9.27369 21 7.48343 20.1982 6.25803 19.4034C5.75816 19.0809 5.28425 18.7137 4.84127 18.3056C4.71191 18.1868 4.58611 18.0636 4.46408 17.936C4.28929 17.7502 4.14025 17.5714 4.14025 17.2744V12.4459Z" fill="black"/>
<path d="M32.286 4.11182H28.0305C27.9453 4.11182 27.8636 4.14594 27.8033 4.20668C27.7431 4.26742 27.7092 4.3498 27.7092 4.4357C27.7092 4.49089 27.7265 4.54027 27.7503 4.5853V7.05291C27.7504 7.14334 27.7328 7.2329 27.6985 7.31647C27.6642 7.40004 27.6139 7.47597 27.5504 7.53991C27.487 7.60386 27.4116 7.65457 27.3287 7.68913C27.2458 7.72369 27.1569 7.74143 27.0672 7.74134H25.7429C25.6596 7.74134 25.5772 7.72481 25.5002 7.69269C25.4233 7.66058 25.3534 7.61351 25.2945 7.55417C25.2357 7.49482 25.189 7.42438 25.1571 7.34684C25.1252 7.26931 25.1088 7.18621 25.1088 7.10229V4.62524C25.1513 4.5712 25.1751 4.50464 25.1766 4.4357C25.1767 4.39314 25.1684 4.35098 25.1523 4.31164C25.1362 4.2723 25.1125 4.23656 25.0826 4.20647C25.0528 4.17637 25.0173 4.15252 24.9783 4.13628C24.9393 4.12003 24.8974 4.11172 24.8552 4.11182H16.2774C16.1921 4.11182 16.1104 4.14594 16.0501 4.20668C15.9899 4.26742 15.956 4.3498 15.956 4.4357C15.956 4.48581 15.9697 4.53156 15.9899 4.5744V7.07034C15.9899 7.15855 15.9726 7.2459 15.9392 7.3274C15.9057 7.40889 15.8566 7.48294 15.7947 7.54532C15.7328 7.6077 15.6593 7.65718 15.5785 7.69093C15.4976 7.72469 15.4109 7.74207 15.3234 7.74207H14.1475C13.969 7.74207 13.7979 7.67061 13.6716 7.54341C13.5454 7.41621 13.4745 7.24369 13.4745 7.0638V4.59256C13.5031 4.54523 13.5188 4.49111 13.5199 4.4357C13.52 4.39314 13.5118 4.35098 13.4957 4.31164C13.4795 4.2723 13.4559 4.23656 13.426 4.20647C13.3962 4.17637 13.3607 4.15252 13.3217 4.13628C13.2826 4.12003 13.2408 4.11172 13.1986 4.11182H8.71476C8.52538 4.11201 8.34379 4.18787 8.20981 4.32277C8.07583 4.45767 8.00038 4.6406 8 4.83148V26.2789C8 26.6769 8.32063 27 8.71476 27H32.286C32.4755 26.9996 32.6571 26.9235 32.7909 26.7883C32.9248 26.6531 33 26.4699 33 26.2789V4.83148C32.9996 4.64073 32.9243 4.4579 32.7904 4.32302C32.6566 4.18815 32.4752 4.1122 32.286 4.11182ZM32.286 26.3523H8.71476C8.70524 26.3523 8.69581 26.3504 8.68702 26.3467C8.67823 26.343 8.67025 26.3376 8.66355 26.3307C8.65685 26.3239 8.65156 26.3158 8.64798 26.3069C8.6444 26.298 8.64261 26.2885 8.64271 26.2789V10.1044H32.3573V26.2782C32.3575 26.2878 32.3558 26.2973 32.3523 26.3063C32.3488 26.3152 32.3436 26.3233 32.337 26.3302C32.3303 26.3371 32.3224 26.3426 32.3137 26.3464C32.3049 26.3502 32.2955 26.3522 32.286 26.3523Z" fill="black"/>
</svg>
