<svg width="23" height="23" viewBox="0 0 23 23" fill="none" xmlns="http://www.w3.org/2000/svg">
<path d="M4.62556 9.95389C6.46556 13.57 9.43 16.5217 13.0461 18.3744L15.8572 15.5633C16.2022 15.2183 16.7133 15.1033 17.1606 15.2567C18.5917 15.7294 20.1378 15.985 21.7222 15.985C22.425 15.985 23 16.56 23 17.2628V21.7222C23 22.425 22.425 23 21.7222 23C9.72389 23 0 13.2761 0 1.27778C0 0.575 0.575 0 1.27778 0H5.75C6.45278 0 7.02778 0.575 7.02778 1.27778C7.02778 2.875 7.28333 4.40833 7.75611 5.83944C7.89667 6.28667 7.79444 6.785 7.43667 7.14278L4.62556 9.95389Z" fill="black"/>
</svg>
