<svg width="99" height="99" viewBox="0 0 99 99" fill="none" xmlns="http://www.w3.org/2000/svg">
<path fill-rule="evenodd" clip-rule="evenodd" d="M49.5 9.89999C42.5738 9.89872 35.7683 11.7141 29.763 15.1649C23.7576 18.6158 18.7624 23.5814 15.2758 29.5661C11.7893 35.5508 9.93341 42.3453 9.89345 49.2714C9.85348 56.1976 11.6308 63.013 15.048 69.0376C17.3578 66.0358 20.3269 63.6054 23.7258 61.9342C27.1247 60.2631 30.8625 59.396 34.65 59.4H64.35C68.1375 59.396 71.8753 60.2631 75.2742 61.9342C78.6731 63.6054 81.6422 66.0358 83.952 69.0376C87.3692 63.013 89.1465 56.1976 89.1066 49.2714C89.0666 42.3453 87.2107 35.5508 83.7242 29.5661C80.2377 23.5814 75.2424 18.6158 69.237 15.1649C63.2317 11.7141 56.4262 9.89872 49.5 9.89999ZM88.8178 79.5761C95.4361 70.9481 99.0159 60.374 98.9999 49.5C98.9999 22.1611 76.8388 0 49.5 0C22.1612 0 5.57035e-05 22.1611 5.57035e-05 49.5C-0.0162864 60.374 3.56358 70.9483 10.1822 79.5761L10.1574 79.6652L11.9147 81.7096C16.5572 87.1373 22.3215 91.4938 28.8102 94.4788C35.2989 97.4638 42.3577 99.0063 49.5 98.9999C59.5353 99.0184 69.3366 95.9701 77.5912 90.2632C81.1103 87.8318 84.3013 84.9569 87.0853 81.7096L88.8426 79.6652L88.8178 79.5761ZM49.5 19.8C45.5615 19.8 41.7844 21.3645 38.9995 24.1494C36.2146 26.9344 34.65 30.7115 34.65 34.65C34.65 38.5884 36.2146 42.3656 38.9995 45.1505C41.7844 47.9354 45.5615 49.5 49.5 49.5C53.4385 49.5 57.2156 47.9354 60.0005 45.1505C62.7854 42.3656 64.35 38.5884 64.35 34.65C64.35 30.7115 62.7854 26.9344 60.0005 24.1494C57.2156 21.3645 53.4385 19.8 49.5 19.8Z" fill="black"/>
</svg>
