<svg width="30" height="30" viewBox="0 0 30 30" fill="none" xmlns="http://www.w3.org/2000/svg">
<path d="M15.8662 21.5C15.7785 21.652 15.6522 21.7782 15.5002 21.866C15.3482 21.9538 15.1758 22 15.0002 22C14.8247 22 14.6523 21.9538 14.5003 21.866C14.3482 21.7782 14.222 21.652 14.1342 21.5L7.20624 9.5C7.11847 9.34798 7.07227 9.17554 7.07227 9.00001C7.07226 8.82447 7.11847 8.65203 7.20623 8.50001C7.294 8.34799 7.42023 8.22175 7.57225 8.13398C7.72427 8.04621 7.89671 8 8.07224 8H21.9282C22.1038 8 22.2762 8.04621 22.4282 8.13398C22.5802 8.22175 22.7065 8.34799 22.7942 8.50001C22.882 8.65203 22.9282 8.82447 22.9282 9.00001C22.9282 9.17554 22.882 9.34798 22.7942 9.5L15.8662 21.5Z" fill="black"/>
<path d="M5 0C4.34339 0 3.69321 0.129329 3.08658 0.380602C2.47995 0.631876 1.92876 1.00017 1.46447 1.46447C0.526784 2.40215 0 3.67392 0 5V25C0 26.3261 0.526784 27.5979 1.46447 28.5355C1.92876 28.9998 2.47995 29.3681 3.08658 29.6194C3.69321 29.8707 4.34339 30 5 30H25C26.3261 30 27.5979 29.4732 28.5355 28.5355C29.4732 27.5979 30 26.3261 30 25V5C30 4.34339 29.8707 3.69321 29.6194 3.08658C29.3681 2.47995 28.9998 1.92876 28.5355 1.46447C28.0712 1.00017 27.52 0.631876 26.9134 0.380602C26.3068 0.129329 25.6566 0 25 0H5ZM2 5C2 4.20435 2.31607 3.44129 2.87868 2.87868C3.44129 2.31607 4.20435 2 5 2H25C25.7956 2 26.5587 2.31607 27.1213 2.87868C27.6839 3.44129 28 4.20435 28 5V25C28 25.7956 27.6839 26.5587 27.1213 27.1213C26.5587 27.6839 25.7956 28 25 28H5C4.20435 28 3.44129 27.6839 2.87868 27.1213C2.31607 26.5587 2 25.7956 2 25V5Z" fill="black"/>
</svg>
