<svg width="28" height="29" viewBox="0 0 28 29" fill="none" xmlns="http://www.w3.org/2000/svg">
<path d="M0.410669 5.50251C0.459996 2.74024 2.74021 0.541485 5.50245 0.592638L22.681 0.91076C25.3706 0.960567 27.5387 3.12941 27.5876 5.81901L27.9074 23.4091C27.9583 26.2056 25.7053 28.5 22.9083 28.5H5.09008C2.29373 28.5 0.0409529 26.2066 0.0908799 23.4107L0.410669 5.50251Z" fill="black"/>
<path d="M13.0615 8.49994C13.1493 8.34793 13.2755 8.22171 13.4275 8.13395C13.5795 8.04619 13.752 7.99998 13.9275 7.99998C14.103 7.99998 14.2755 8.04619 14.4275 8.13395C14.5795 8.22171 14.7057 8.34793 14.7935 8.49994L21.7215 20.4999C21.8093 20.652 21.8555 20.8244 21.8555 20.9999C21.8555 21.1755 21.8093 21.3479 21.7215 21.4999C21.6337 21.6519 21.5075 21.7782 21.3555 21.866C21.2035 21.9537 21.031 21.9999 20.8555 21.9999L6.99949 21.9999C6.82396 21.9999 6.65152 21.9537 6.4995 21.866C6.34749 21.7782 6.22125 21.6519 6.13349 21.4999C6.04572 21.3479 5.99952 21.1755 5.99952 20.9999C5.99952 20.8244 6.04573 20.652 6.13349 20.4999L13.0615 8.49994Z" fill="#D9D9D9"/>
</svg>
