<svg width="38" height="31" viewBox="0 0 38 31" fill="none" xmlns="http://www.w3.org/2000/svg">
<path d="M13.059 22.5333L13.0588 22.5332C13.0588 22.5331 13.0314 22.5241 12.9952 22.5011C12.9567 22.4766 12.9161 22.4413 12.8841 22.3906C12.8377 22.3169 12.7427 22.1026 12.9137 21.6047C14.2921 20.3423 15.3454 18.3655 15.3454 16.3795C15.3454 14.8 14.7235 13.562 13.7191 12.7277C12.7259 11.9026 11.3941 11.5 10.0008 11.5C8.60672 11.5 7.27722 11.9024 6.28666 12.7279C5.28499 13.5626 4.66691 14.8006 4.66691 16.3795C4.66691 18.3806 5.72315 20.3751 7.12121 21.6363C7.26496 22.0145 7.17267 22.2021 7.10119 22.2993C7.05005 22.3689 6.98198 22.4262 6.91248 22.4701C6.87853 22.4916 6.84691 22.5081 6.82127 22.52C6.80854 22.5259 6.79789 22.5303 6.78983 22.5335C6.78261 22.5363 6.77848 22.5377 6.77765 22.5379C5.39199 22.9653 3.87104 23.5725 2.6854 24.2767C2.09356 24.6281 1.56368 25.0163 1.17583 25.4348C0.792851 25.8481 0.5 26.3441 0.5 26.9022V27.4695C0.5 28.2107 0.933541 28.7628 1.52538 29.1524C2.10778 29.5357 2.8988 29.8038 3.77941 29.9964C5.54808 30.3832 7.8486 30.5 10.0263 30.5C12.207 30.5 14.4949 30.3832 16.2501 29.9962C17.1241 29.8035 17.9085 29.5351 18.4858 29.151C19.0734 28.7601 19.5 28.2078 19.5 27.4695V26.9022C19.5 26.3356 19.2091 25.8322 18.82 25.4114C18.4274 24.9866 17.8898 24.596 17.2862 24.2447C16.0768 23.5407 14.515 22.9444 13.059 22.5333Z" stroke="black"/>
<path d="M31.2479 12.2383C31.103 12.1979 30.1869 11.8458 30.7593 10.3618H30.7511C32.2434 9.05126 33.3838 6.94236 33.3838 4.8661C33.3838 1.6736 30.8943 0 28.0009 0C25.1057 0 22.6299 1.67282 22.6299 4.8661C22.6299 6.95091 23.7639 9.06837 25.2653 10.3758C25.8505 11.6849 24.804 12.1707 24.5852 12.2391C21.5552 13.1735 18 14.8766 18 16.558V17.1884C18 19.4792 23.2088 20 28.0292 20C32.8569 20 38 19.4792 38 17.1884V16.558C38 14.8261 34.4275 13.1361 31.2479 12.2383Z" fill="black"/>
</svg>
