<svg width="22" height="25" viewBox="0 0 22 25" fill="none" xmlns="http://www.w3.org/2000/svg">
<path d="M11 14.4231C10.0111 14.4231 9.04439 14.1411 8.22215 13.6128C7.3999 13.0846 6.75904 12.3337 6.3806 11.4552C6.00216 10.5767 5.90315 9.61005 6.09607 8.67745C6.289 7.74485 6.7652 6.8882 7.46447 6.21583C8.16373 5.54346 9.05464 5.08558 10.0245 4.90007C10.9945 4.71456 11.9998 4.80977 12.9134 5.17366C13.827 5.53754 14.6079 6.15375 15.1573 6.94437C15.7068 7.73499 16 8.66451 16 9.61538C16 10.8905 15.4732 12.1133 14.5355 13.0149C13.5979 13.9166 12.3261 14.4231 11 14.4231ZM22 1.92308V23.0769C22 23.587 21.7893 24.0761 21.4142 24.4367C21.0391 24.7974 20.5304 25 20 25H2C1.46957 25 0.960859 24.7974 0.585786 24.4367C0.210714 24.0761 0 23.587 0 23.0769V1.92308C0 1.41305 0.210714 0.923903 0.585786 0.563256C0.960859 0.202609 1.46957 0 2 0H20C20.5304 0 21.0391 0.202609 21.4142 0.563256C21.7893 0.923903 22 1.41305 22 1.92308ZM12 18.2692V16.2764C13.7516 16.0333 15.3424 15.1613 16.4523 13.8359C17.5622 12.5105 18.1088 10.83 17.982 9.1327C17.8553 7.4354 17.0647 5.84725 15.7692 4.68787C14.4738 3.52849 12.7697 2.88394 11 2.88394C9.23026 2.88394 7.5262 3.52849 6.23078 4.68787C4.93535 5.84725 4.14471 7.4354 4.01797 9.1327C3.89124 10.83 4.43781 12.5105 5.5477 13.8359C6.6576 15.1613 8.24841 16.0333 10 16.2764V18.2692H7C6.73478 18.2692 6.48043 18.3705 6.29289 18.5509C6.10536 18.7312 6 18.9758 6 19.2308C6 19.4858 6.10536 19.7304 6.29289 19.9107C6.48043 20.091 6.73478 20.1923 7 20.1923H10V22.1154C10 22.3704 10.1054 22.615 10.2929 22.7953C10.4804 22.9756 10.7348 23.0769 11 23.0769C11.2652 23.0769 11.5196 22.9756 11.7071 22.7953C11.8946 22.615 12 22.3704 12 22.1154V20.1923H15C15.2652 20.1923 15.5196 20.091 15.7071 19.9107C15.8946 19.7304 16 19.4858 16 19.2308C16 18.9758 15.8946 18.7312 15.7071 18.5509C15.5196 18.3705 15.2652 18.2692 15 18.2692H12Z" fill="black"/>
</svg>
