<svg width="25" height="25" viewBox="0 0 25 25" fill="none" xmlns="http://www.w3.org/2000/svg">
<path d="M4.53846 9.94444V1L1 3.55556M1 17.6111C1 16.9333 1.3728 16.2833 2.03639 15.8041C2.69998 15.3248 3.6 15.0556 4.53846 15.0556C5.47692 15.0556 6.37694 15.3248 7.04053 15.8041C7.70412 16.2833 8.07692 16.9333 8.07692 17.6111C8.07692 18.3663 7.01361 19.4767 6.30769 20.1667L1 24H8.07692M16.9231 15.0556C16.9231 15.561 17.1306 16.0551 17.5194 16.4753C17.9082 16.8956 18.4609 17.2232 19.1074 17.4166C19.754 17.61 20.4655 17.6606 21.1519 17.562C21.8383 17.4634 22.4687 17.22 22.9636 16.8626C23.4585 16.5052 23.7955 16.0498 23.932 15.5541C24.0685 15.0584 23.9985 14.5446 23.7306 14.0776C23.4628 13.6106 23.0093 13.2115 22.4274 12.9307C21.8455 12.6499 21.1614 12.5 20.4615 12.5C21.1614 12.5 21.8455 12.3501 22.4274 12.0693C23.0093 11.7885 23.4628 11.3894 23.7306 10.9224C23.9985 10.4554 24.0685 9.94161 23.932 9.44588C23.7955 8.95015 23.4585 8.4948 22.9636 8.13739C22.4687 7.77999 21.8383 7.5366 21.1519 7.43799C20.4655 7.33939 19.754 7.38999 19.1074 7.58342C18.4609 7.77684 17.9082 8.1044 17.5194 8.52465C17.1306 8.94491 16.9231 9.439 16.9231 9.94444M1.88462 9.94444H7.19231" stroke="black" stroke-width="2" stroke-linecap="round" stroke-linejoin="round"/>
</svg>
